<svg width="1609" height="1605" xmlns="http://www.w3.org/2000/svg" xmlns:xlink="http://www.w3.org/1999/xlink" xml:space="preserve" overflow="hidden"><defs><clipPath id="clip0"><rect x="2076" y="643" width="1609" height="1605"/></clipPath></defs><g clip-path="url(#clip0)" transform="translate(-2076 -643)"><path d="M3229.95 1656.75C3201.31 1656.75 3178.04 1662.18 3160.14 1673.04 3142.24 1683.89 3127.8 1696.38 3116.84 1710.48L3115.16 1661.45 3029.57 1661.45 3029.57 1989.22 3118.52 1989.22 3118.52 1770.59C3127.92 1758.73 3138.94 1748.65 3151.58 1740.37 3164.22 1732.08 3179.38 1727.94 3197.06 1727.94 3208.92 1727.94 3218.49 1730.41 3225.76 1735.33 3233.03 1740.26 3238.34 1747.2 3241.7 1756.15 3245.06 1765.11 3246.74 1775.52 3246.74 1787.38L3246.74 1989.22 3335.01 1989.22 3335.01 1775.97C3335.01 1737.01 3325.84 1707.4 3307.49 1687.14 3289.14 1666.88 3263.29 1656.75 3229.95 1656.75ZM2831.25 1656.75C2802.61 1656.75 2779.34 1662.18 2761.44 1673.04 2743.53 1683.89 2729.1 1696.38 2718.14 1710.48L2716.46 1661.45 2630.87 1661.45 2630.87 1989.22 2719.81 1989.22 2719.81 1770.59C2729.21 1758.73 2740.23 1748.65 2752.88 1740.37 2765.52 1732.08 2780.68 1727.94 2798.36 1727.94 2810.22 1727.94 2819.78 1730.41 2827.06 1735.33 2834.33 1740.26 2839.64 1747.2 2843 1756.15 2846.36 1765.11 2848.03 1775.52 2848.03 1787.38L2848.03 1989.22 2936.31 1989.22 2936.31 1775.97C2936.31 1737.01 2927.14 1707.4 2908.79 1687.14 2890.44 1666.88 2864.59 1656.75 2831.25 1656.75ZM2434.46 1537.19 2434.46 1989.22 2528.77 1989.22 2528.77 1537.19ZM2880.5 643 3685 1433.67 3444.63 1433.67 3444.63 2248 2316.37 2248 2316.37 1433.67 2076 1433.67Z" fill="#EBBA20" fill-rule="evenodd"/></g></svg>