<svg width="1609" height="1161" xmlns="http://www.w3.org/2000/svg" xmlns:xlink="http://www.w3.org/1999/xlink" xml:space="preserve" overflow="hidden"><defs><clipPath id="clip0"><rect x="299" y="173" width="1609" height="1161"/></clipPath></defs><g clip-path="url(#clip0)" transform="translate(-299 -173)"><path d="M1439.65 810.961C1412.15 810.961 1389.81 816.17 1372.63 826.588 1355.44 837.006 1341.59 848.981 1331.06 862.514L1329.45 815.472 1247.28 815.472 1247.28 1129.95 1332.67 1129.95 1332.67 920.189C1341.69 908.804 1352.27 899.138 1364.41 891.19 1376.55 883.243 1391.1 879.269 1408.07 879.269 1419.46 879.269 1428.64 881.632 1435.62 886.357 1442.6 891.083 1447.71 897.742 1450.93 906.334 1454.15 914.926 1455.76 924.915 1455.76 936.299L1455.76 1129.95 1540.51 1129.95 1540.51 925.344C1540.51 887.969 1531.7 859.561 1514.08 840.121 1496.47 820.681 1471.66 810.961 1439.65 810.961ZM1058.13 810.961C1030.64 810.961 1008.3 816.17 991.11 826.588 973.925 837.006 960.069 848.981 949.543 862.514L947.932 815.472 865.764 815.472 865.764 1129.95 951.154 1129.95 951.154 920.189C960.176 908.804 970.756 899.138 982.893 891.19 995.031 883.243 1009.58 879.269 1026.55 879.269 1037.94 879.269 1047.12 881.632 1054.11 886.357 1061.09 891.083 1066.19 897.742 1069.41 906.334 1072.63 914.926 1074.24 924.915 1074.24 936.299L1074.24 1129.95 1158.99 1129.95 1158.99 925.344C1158.99 887.969 1150.18 859.561 1132.57 840.121 1114.95 820.681 1090.14 810.961 1058.13 810.961ZM679.409 696.255 679.409 1129.95 769.955 1129.95 769.955 696.255ZM1103.5 173 1908 655.493 1667.63 655.493 1667.63 1334 539.375 1334 539.375 655.493 299 655.493Z" fill="#EBBA20" fill-rule="evenodd"/></g></svg>