<svg width="3334" height="1589" xmlns="http://www.w3.org/2000/svg" xmlns:xlink="http://www.w3.org/1999/xlink" xml:space="preserve" overflow="hidden"><defs><clipPath id="clip0"><rect x="591" y="491" width="3334" height="1589"/></clipPath></defs><g clip-path="url(#clip0)" transform="translate(-591 -491)"><path d="M1728.16 1180.48C1700.66 1180.48 1678.32 1185.68 1661.13 1196.1 1643.95 1206.52 1630.09 1218.5 1619.57 1232.03L1617.96 1184.99 1535.79 1184.99 1535.79 1499.46 1621.18 1499.46 1621.18 1289.7C1630.2 1278.32 1640.78 1268.65 1652.92 1260.71 1665.05 1252.76 1679.61 1248.78 1696.58 1248.78 1707.96 1248.78 1717.15 1251.15 1724.13 1255.87 1731.11 1260.6 1736.21 1267.26 1739.43 1275.85 1742.66 1284.44 1744.27 1294.43 1744.27 1305.81L1744.27 1499.46 1829.01 1499.46 1829.01 1294.86C1829.01 1257.48 1820.21 1229.08 1802.59 1209.64 1784.98 1190.2 1760.16 1180.48 1728.16 1180.48ZM1346.64 1180.48C1319.14 1180.48 1296.8 1185.68 1279.62 1196.1 1262.43 1206.52 1248.58 1218.5 1238.05 1232.03L1236.44 1184.99 1154.27 1184.99 1154.27 1499.46 1239.66 1499.46 1239.66 1289.7C1248.68 1278.32 1259.26 1268.65 1271.4 1260.71 1283.54 1252.76 1298.09 1248.78 1315.06 1248.78 1326.45 1248.78 1335.63 1251.15 1342.61 1255.87 1349.59 1260.6 1354.7 1267.26 1357.92 1275.85 1361.14 1284.44 1362.75 1294.43 1362.75 1305.81L1362.75 1499.46 1447.5 1499.46 1447.5 1294.86C1447.5 1257.48 1438.69 1229.08 1421.07 1209.64 1403.46 1190.2 1378.65 1180.48 1346.64 1180.48ZM967.916 1065.77 967.916 1499.46 1058.46 1499.46 1058.46 1065.77ZM1395.5 491 2200 973.493 1959.63 973.493 1959.63 1652 831.374 1652 831.374 973.493 591 973.493Z" fill="#EBBA20" fill-rule="evenodd"/><text fill="#EBBA20" font-family="Aptos,Aptos_MSFontService,sans-serif" font-weight="700" font-size="660" transform="matrix(1 0 0 1 2002.34 1500)">Sight</text></g></svg>